<svg width="144" height="144" viewBox="0 0 144 144" fill="none" xmlns="http://www.w3.org/2000/svg">
<rect x="0.5" y="0.5" width="143" height="143" fill="#16547F"/>
<rect x="0.5" y="0.5" width="143" height="143" stroke="black"/>
<path d="M42 12C42.0532 12.4254 42.7855 13.1003 42.9423 13.6491C43.1342 14.3207 43.8281 14.8502 43.8847 15.5861C43.9417 16.3269 44.5935 17.2483 44.827 18.0074C45.2341 19.3303 45.8875 20.5737 46.3453 21.8815C47.4869 25.1433 48.2564 28.6339 48.8843 32.0248C49.4646 35.1582 49.8224 38.3555 50.5989 41.4614C50.9665 42.9319 51.1593 44.647 51.1879 46.16C51.2168 47.6915 51.659 49.2176 51.659 50.7539C51.659 53.9011 52.08 57.1878 52.549 60.2952C52.9358 62.8578 53.0345 65.489 53.3212 68.0695C53.4235 68.9897 53.4893 70.2762 53.8317 71.1321C53.9132 71.3358 53.9327 72.1568 54.0672 72.2577C54.3267 72.4523 54.0578 70.7898 54.0149 70.6609" stroke="white" stroke-width="10" stroke-linecap="round"/>
<path d="M78.0151 8C77.8986 8.52425 76.9662 9.13804 76.6539 9.6491C76.3249 10.1875 75.5174 10.9427 75.0572 11.4029C73.71 12.75 72.2789 14.1525 71.2878 15.7743C69.4363 18.804 67.2694 21.7103 65.2934 24.6743C63.6351 27.1618 61.4395 29.3078 59.9927 31.912C59.592 32.6334 59.0566 33.3637 58.5138 33.9668C58.2046 34.3104 57.3351 35.8577 57.2835 36.2703C57.178 37.1145 57.0479 38.0241 57.0479 38.9796C57.0479 40.2187 56.6987 41.2658 57.8856 41.8197C60.8651 43.2101 64.5317 43.8403 67.754 44.3326C70.7304 44.7873 73.596 45.8622 76.5492 46.4529C79.3332 47.0097 82.1945 47.7442 84.978 48.4161C87.0486 48.9159 89.2216 49.1071 91.2079 49.8165C92.2881 50.2023 93.8307 50.3452 94.9773 50.4055C95.9807 50.4583 96.9998 51.1123 98.0399 51.1123" stroke="white" stroke-width="10" stroke-linecap="round"/>
<path d="M56.8524 89.2731C55.7592 89.2731 54.902 88.7252 53.8423 88.6056C52.0353 88.4016 49.3723 87.9731 47.7048 87.5254C43.4557 86.3844 39.0787 87.2293 35.5666 88.8362C32.9241 90.0452 28.9823 91.6327 27.8264 93.6424C26.8674 95.3098 26.595 96.6765 26.595 98.4487C26.595 100.663 29.4271 102.07 31.4424 103.692C34.2594 105.959 37.6946 106.649 41.8801 107.515C43.6261 107.876 45.5735 107.76 47.353 108.013C49.2064 108.276 51.109 108.458 52.9823 108.717C57.186 109.297 59.6155 110.432 62.5599 112.261C65.0974 113.836 66 115.541 66 117.722C66 120.214 63.2426 121.786 61.2698 123.791C56.5013 128.636 47.5146 131 38.6354 131C33.4095 131 28.5284 130.106 23.4285 129.519C20.928 129.232 16.6681 128.921 14.9846 127.614C13.5306 126.485 13.1482 125.753 12.5022 124.349C12.1626 123.611 11.5563 121.332 12.5217 120.732" stroke="white" stroke-width="10" stroke-linecap="round"/>
<path d="M90.4638 86.9475C90.4638 88.9863 91.0054 90.9277 91.1575 92.9811C91.3779 95.9573 91.6015 99.0434 91.6417 102.025C91.6782 104.722 91.3547 107.255 91.1575 109.917C90.9981 112.069 90.1342 114.492 89.4168 116.514C88.7352 118.434 87.8301 120.238 87.1133 122.102C86.8935 122.674 86.2233 123.173 86.2233 123.817C86.2233 124.53 85.7209 122.552 86.2233 122.05" stroke="white" stroke-width="10" stroke-linecap="round"/>
<path d="M94.7046 102.025C96.8557 102.22 98.9253 103.036 101.065 103.386C105.485 104.109 109.676 104.381 114.154 104.381C115.855 104.381 117.556 104.381 119.258 104.381C120.257 104.381 121.338 104.503 122.321 104.328C122.854 104.234 124.642 104.108 124.86 103.674" stroke="white" stroke-width="10" stroke-linecap="round"/>
<path d="M122.032 82C122.946 82.1142 124.105 86.202 124.441 86.9473C125.67 89.6784 126.015 92.6332 126.456 95.664C126.854 98.3961 126.744 101.326 126.744 104.093C126.744 107.606 126.785 111.111 125.985 114.511C125.115 118.21 124.395 121.722 123.158 125.295C122.593 126.926 121.526 130.666 119.912 131.473" stroke="white" stroke-width="10" stroke-linecap="round"/>
</svg>
